<?xml version="1.0" encoding="UTF-8" standalone="no" ?>
<!DOCTYPE svg PUBLIC "-//W3C//DTD SVG 1.1//EN" "http://www.w3.org/Graphics/SVG/1.1/DTD/svg11.dtd">
<svg xmlns="http://www.w3.org/2000/svg" xmlns:xlink="http://www.w3.org/1999/xlink" version="1.1" width="600" height="600" viewBox="0 0 600 600" xml:space="preserve">
<desc>Created with Fabric.js 3.6.3</desc>
<defs>
</defs>
<g transform="matrix(1.33 0 0 1.33 300.56 298.6)"  >
<path style="stroke: none; stroke-width: 1; stroke-dasharray: none; stroke-linecap: butt; stroke-dashoffset: 0; stroke-linejoin: miter; stroke-miterlimit: 4; fill: rgb(0,0,0); fill-rule: nonzero; opacity: 1;"  transform=" translate(-349.51, -280.56)" d="m 492.8 302.96 c -8.9609 -15.121 -25.199 -24.641 -43.121 -24.641 c -12.879 0 -24.641 4.4805 -33.602 12.879 l -6.1602 -10.641 v -0.55859 c -10.078 -17.359 -26.879 -29.121 -45.359 -33.039 v -55.441 h 100.8 c 6.7188 0 13.441 -4.4805 15.68 -10.641 c 2.2383 -6.7188 0.55859 -14 -4.4805 -18.48 l -41.441 -36.961 l 41.441 -36.961 c 5.0391 -4.4805 6.7188 -11.762 4.4805 -18.48 c -2.2383 -6.7188 -8.9609 -10.641 -15.68 -10.641 h -117.6 c -9.5195 0 -16.801 7.2812 -16.801 16.801 v 171.36 c -19.039 4.4805 -35.281 16.238 -45.922 33.602 l -4.4805 7.2812 c -8.3984 -6.1602 -19.039 -9.5195 -29.68 -9.5195 c -17.922 0 -34.16 8.9609 -43.121 24.641 l -78.395 129.36 c -3.3594 5.0391 -3.3594 11.762 0 16.801 c 2.8008 5.0391 8.3984 8.3984 14.559 8.3984 h 40.32 l -10.641 18.48 c -2.8008 5.0391 -2.8008 11.762 0 16.801 c 2.8008 5.0391 8.3984 8.3984 14.559 8.3984 h 317.52 c 6.1602 0 11.762 -3.3594 14.559 -8.3984 c 2.8008 -5.0391 2.8008 -11.762 0 -16.801 l -10.641 -18.48 h 45.922 c 6.1602 0 11.762 -3.3594 14.559 -8.3984 c 2.8008 -5.0391 2.8008 -11.762 0 -16.801 z m -128.8 -211.12 h 57.121 l -22.398 20.16 c -3.3594 3.3594 -5.6016 7.8398 -5.6016 12.32 c 0 4.4805 2.2383 9.5195 5.6016 12.32 l 22.398 20.16 h -57.121 z m -190.96 332.64 l 62.719 -104.72 c 4.4805 -7.2812 11.762 -8.3984 14.559 -8.3984 c 2.8008 0 8.3984 0.55859 12.879 6.1602 l -60.48 106.4 h -29.676 z m 44.242 43.68 l 96.32 -170.8 c 7.2812 -11.762 19.602 -19.039 33.602 -19.039 s 26.32 7.2812 33.602 19.039 l 96.32 170.8 z m 273.84 -43.68 l -57.68 -101.92 l 1.6797 -2.8008 c 4.4805 -7.2812 11.762 -8.3984 14.559 -8.3984 c 2.8008 0 10.078 0.55859 14.559 8.3984 l 62.719 104.72 z" stroke-linecap="round" />
</g>
</svg>