<?xml version="1.0" standalone="no"?>
<!DOCTYPE svg PUBLIC "-//W3C//DTD SVG 20010904//EN"
 "http://www.w3.org/TR/2001/REC-SVG-20010904/DTD/svg10.dtd">
<svg version="1.0" xmlns="http://www.w3.org/2000/svg"
 width="700.000000pt" height="700.000000pt" viewBox="0 0 700.000000 700.000000"
 preserveAspectRatio="xMidYMid meet">
<metadata>
Created by potrace 1.14, written by Peter Selinger 2001-2017
</metadata>
<g transform="translate(0.000000,700.000000) scale(0.100000,-0.100000)"
fill="#000000" stroke="none">
<path d="M3396 6935 c-78 -28 -130 -77 -159 -153 -16 -39 -17 -154 -17 -1398
0 -1075 -3 -1355 -12 -1358 -320 -93 -531 -248 -701 -519 -32 -50 -62 -96 -66
-100 -5 -5 -27 3 -50 17 -74 47 -184 90 -261 102 -14 2 -40 7 -59 10 -160 27
-372 -22 -526 -121 -116 -75 -173 -146 -345 -430 -268 -443 -517 -854 -612
-1010 -54 -88 -115 -189 -136 -225 -21 -36 -116 -192 -210 -347 -94 -155 -176
-300 -182 -323 -29 -109 31 -231 145 -293 39 -21 52 -22 365 -24 179 -1 335
-2 348 -3 l24 0 -20 -32 c-11 -18 -30 -51 -42 -73 -12 -22 -43 -75 -67 -118
-25 -43 -51 -97 -57 -120 -14 -47 -11 -122 6 -164 6 -15 11 -31 10 -35 -3 -15
85 -92 128 -112 l45 -21 2500 0 c1464 -1 2519 3 2546 8 64 13 136 70 168 132
21 40 26 63 26 120 -1 81 -3 85 -147 334 -25 45 -41 81 -35 81 7 1 181 2 387
3 357 2 377 3 420 23 57 26 109 81 131 136 29 75 16 203 -26 258 -7 8 -58 94
-115 190 -57 96 -149 252 -205 345 -56 94 -182 305 -280 470 -97 165 -185 311
-193 325 -9 14 -23 36 -31 50 -27 50 -37 65 -52 90 -9 14 -92 153 -185 309
-134 225 -182 298 -234 351 -101 104 -192 160 -332 206 -69 23 -104 28 -209
30 -125 3 -175 -4 -287 -42 -78 -26 -176 -83 -229 -133 l-21 -20 -16 24 c-17
27 -52 87 -88 156 -59 111 -183 246 -303 331 -114 81 -199 120 -382 174 -10 3
-13 98 -13 432 l0 429 799 1 c615 0 808 3 838 12 76 26 125 66 158 131 44 86
23 226 -43 294 -10 11 -52 49 -92 85 -41 36 -79 70 -85 75 -38 35 -122 110
-190 170 -43 39 -86 77 -95 85 -9 8 -36 33 -60 54 -25 22 -65 57 -89 79 l-44
40 44 40 c111 102 139 127 214 192 44 39 98 87 120 107 22 20 50 45 62 55 76
66 193 173 220 202 65 69 82 201 37 291 -26 54 -53 80 -114 112 l-45 23 -970
2 c-802 2 -977 0 -1009 -12z m1206 -500 c-6 -9 -66 -65 -128 -120 -111 -98
-186 -166 -213 -195 -100 -103 -100 -259 1 -361 19 -19 72 -68 118 -109 47
-41 103 -92 125 -113 22 -22 55 -50 73 -65 18 -14 29 -28 23 -31 -5 -3 -202
-6 -438 -5 l-428 0 -3 495 c-1 272 0 499 2 504 2 6 157 10 439 10 300 0 433
-3 429 -10z m-984 -2902 c167 -44 309 -156 398 -318 15 -27 84 -151 154 -275
70 -124 138 -245 152 -270 14 -25 54 -97 90 -160 36 -63 78 -137 93 -165 16
-27 64 -113 108 -190 44 -77 91 -160 105 -185 96 -171 179 -319 267 -475 57
-99 115 -202 130 -230 15 -27 43 -76 61 -108 19 -32 34 -60 34 -62 0 -2 19
-36 43 -77 24 -40 59 -102 79 -138 19 -36 61 -109 92 -164 32 -54 54 -101 51
-104 -8 -8 -4015 -9 -4015 -2 0 5 17 36 130 235 40 72 99 175 130 230 31 55
66 116 77 135 11 19 35 62 53 95 18 33 59 105 90 160 31 55 70 123 85 150 15
28 57 102 93 165 36 63 78 138 93 165 15 28 123 219 239 425 117 206 222 393
234 415 103 185 264 468 286 500 87 127 237 228 375 252 17 3 32 6 33 8 11 10
190 1 240 -12z m-1540 -519 c18 -8 45 -29 62 -45 l30 -30 -24 -37 c-13 -20
-116 -199 -228 -397 -112 -198 -265 -466 -338 -595 -74 -129 -141 -248 -149
-263 -9 -16 -20 -36 -26 -46 -5 -9 -48 -83 -93 -164 l-84 -147 -224 0 c-123 0
-224 3 -224 6 0 3 82 143 183 310 100 168 190 319 201 337 176 304 603 1000
630 1026 68 66 201 87 284 45z m3098 -2 c22 -11 53 -35 70 -54 25 -26 308
-484 323 -523 2 -5 17 -29 32 -52 16 -23 29 -44 29 -48 0 -3 12 -24 28 -48 15
-23 29 -47 32 -52 7 -15 198 -333 225 -375 17 -28 329 -549 341 -570 1 -3
-122 -6 -275 -6 l-278 0 -124 219 c-68 121 -137 243 -152 271 -16 28 -42 72
-58 99 -16 26 -29 49 -29 51 0 3 -23 44 -51 93 -28 48 -65 113 -82 143 -60
108 -320 566 -358 632 -38 65 -39 69 -25 97 36 68 98 118 176 141 42 13 135 3
176 -18z"/>
</g>
</svg>
